<mxfile host="app.diagrams.net" modified="2024-05-02T11:59:36.863Z" agent="Mozilla/5.0 (Macintosh; Intel Mac OS X 10_15_7) AppleWebKit/537.36 (KHTML, like Gecko) Chrome/124.0.0.0 Safari/537.36" version="24.3.1" etag="b9cIo3GFPvZ_vM1ASySW" type="github">
  <diagram name="페이지-1" id="fxJgqVimNkRRdFLXKVzO">
    <mxGraphModel>
      <root>
        <mxCell id="0" />
        <mxCell id="1" parent="0" />
      </root>
    </mxGraphModel>
  </diagram>
</mxfile>
